<svg width="1089" height="956" viewBox="0 0 1089 956" fill="none" xmlns="http://www.w3.org/2000/svg">
<rect width="1088.96" height="955.999" fill="white"/>
<path d="M634.297 372.39C622.857 413.976 631.99 458.283 631.99 458.283C631.99 458.283 668.418 431.072 688.448 393.532C705.627 361.34 695.085 340.671 680.107 334.838C665.2 328.994 643.987 337.122 634.286 372.378L634.297 372.39Z" fill="#0029FF"/>
<path d="M687.135 530.961C653.026 504.507 633.753 463.572 633.753 463.572C633.753 463.572 679.244 463.56 717.801 481.614C750.868 497.112 754.832 519.958 746.337 533.587C737.913 547.193 716.05 553.381 687.135 530.961Z" fill="#0029FF"/>
<path d="M574.266 480.3C573.793 478.88 574.585 477.295 576.005 476.822L770.092 412.295C771.512 411.822 773.097 412.615 773.571 414.035C774.044 415.454 773.251 417.04 771.831 417.513L577.744 482.039C576.301 482.56 574.715 481.767 574.266 480.3Z" fill="#0029FF"/>
<path d="M907.189 249.643C926.686 259.344 938.186 272.985 940.493 289.099C941.061 292.92 941.085 297.594 940.138 302.953C946.148 302.492 951.247 303.107 955.27 304.254C970.922 308.608 983.037 321.753 990.148 342.327C997.743 364.131 996.324 382.611 986.09 395.862C983.877 398.666 980.92 401.718 976.873 404.475C979.902 407.48 982.245 410.509 983.83 413.301C992.029 427.332 991.473 445.197 982.233 464.907C972.437 485.836 958.524 498.117 941.925 500.365C932.389 501.678 917.553 500.152 900.907 485.482C888.638 474.621 880.191 464.553 875.08 454.674C867.827 440.618 867.188 426.883 873.222 413.951C876.298 407.302 880.747 401.884 886.295 397.648C881.977 393.247 878.641 387.982 876.511 381.818C874.18 375.181 873.553 368.485 874.405 361.824C867.224 362.013 860.196 360.546 853.441 357.163C840.675 350.774 832.63 339.665 829.519 324.142C827.33 313.234 827.685 300.125 830.595 284.012C834.499 262.183 845.183 251.76 853.453 246.898C867.993 238.344 886.52 239.302 907.189 249.643Z" fill="#FFD000"/>
<path d="M940.6 401.848C918.535 402.227 896.92 398.11 889.679 377.228C882.403 356.394 895.926 338.564 914.288 326.343C939.654 309.425 956.667 326.449 965.209 350.963C974.094 376.518 971.361 401.351 940.6 401.848Z" fill="#0029FF"/>
<path d="M914.527 327.077C899.194 342.93 881.01 355.317 861.11 345.663C841.187 336.068 838.158 313.933 842.488 292.258C848.427 262.385 872.503 262.326 895.905 273.672C920.277 285.432 935.929 304.941 914.527 327.077Z" fill="#0029FF"/>
<path d="M906.148 473.142C890.27 457.809 877.883 439.625 887.526 419.737C897.168 399.849 919.256 396.809 940.943 401.151C970.828 407.114 970.899 431.178 959.565 454.556C947.781 478.963 928.26 494.509 906.148 473.142Z" fill="#0029FF"/>
<path d="M800.793 468.765C841.078 488.925 890.058 472.646 910.206 432.397C930.354 392.148 914.04 343.167 873.755 323.007C833.471 302.847 784.49 319.127 764.342 359.388C744.194 399.637 760.509 448.617 800.793 468.777V468.765Z" fill="white"/>
<path d="M873.544 415.786C874.786 414.176 876.478 412.911 878.56 412.213C884.049 410.426 889.965 413.384 891.799 418.897C893.585 424.387 890.627 430.29 885.114 432.124C879.625 433.911 873.709 430.953 871.875 425.44C871.26 423.582 871.236 421.642 871.627 419.855C856.672 414.484 822.493 407.918 765.349 426.753C764.225 427.12 762.995 426.504 762.616 425.38C762.238 424.268 762.865 423.026 763.989 422.647C823.049 403.221 858.021 410.047 873.555 415.774L873.544 415.786Z" fill="#0029FF"/>
<path d="M853.088 353.756C855.052 354.3 857.217 354.335 859.299 353.637C864.788 351.851 867.77 345.9 865.983 340.41C864.197 334.921 858.234 331.939 852.744 333.726C847.255 335.512 844.273 341.463 846.06 346.953C846.687 348.822 847.823 350.384 849.219 351.579C840.393 364.735 816.79 390.29 759.646 409.125C758.534 409.491 757.907 410.734 758.274 411.858C758.641 412.97 759.883 413.597 761.007 413.23C819.961 393.874 843.99 367.598 853.088 353.779V353.756Z" fill="#0029FF"/>
<path d="M884.239 366.865C889.728 365.078 895.644 368.036 897.477 373.549C899.264 379.039 896.306 384.942 890.793 386.776C886.025 388.362 880.902 386.303 878.477 382.103L763.196 420.009C762.072 420.376 760.841 419.761 760.463 418.637C760.084 417.525 760.711 416.283 761.823 415.904L877.104 377.998C876.56 373.135 879.412 368.415 884.239 366.853V366.865Z" fill="#0029FF"/>
<path d="M752.653 418.793L752.675 418.97L752.629 418.803L742.637 421.557L738.817 410.569C738.817 410.568 738.817 410.568 738.817 410.568C715.197 342.604 746.54 270.294 807.788 248.973L807.798 248.97L807.808 248.966C810.049 248.17 812.332 247.462 814.835 246.784L814.843 246.782L814.851 246.78L824.831 244.027L828.651 255.014C828.651 255.014 828.651 255.015 828.651 255.015C852.271 322.979 820.928 395.289 759.68 416.61L759.67 416.613L759.66 416.617C757.407 417.417 755.06 418.157 752.653 418.793Z" fill="#FFD000" stroke="white" stroke-width="6.77416"/>
<path d="M801.647 283.243C803.611 282.545 805.575 281.977 807.586 281.433C827.249 338.092 801.351 398.513 749.756 416.46C747.793 417.158 745.805 417.773 743.817 418.27C724.154 361.612 750.029 301.238 801.659 283.243H801.647Z" fill="#0029FF"/>
<path d="M753.412 423.302L744.34 426.797L747.816 437.903C747.816 437.904 747.816 437.904 747.816 437.904C769.319 506.581 837.507 546.158 899.453 526.933L899.454 526.933C901.739 526.224 903.998 525.433 906.397 524.511C906.397 524.511 906.398 524.51 906.398 524.51L916.059 520.789L912.593 509.683L753.412 423.302ZM753.412 423.302H753.423L754.01 423.076C756.406 422.155 758.749 421.34 760.956 420.653L753.412 423.302ZM760.957 420.653C822.902 401.429 891.088 441.005 912.592 509.68L760.957 420.653Z" fill="#FFD000" stroke="white" stroke-width="6.77416"/>
<path d="M874.147 503.075C876.135 502.46 878.099 501.762 880.015 501.04C862.115 443.837 805.374 410.592 753.152 426.801C751.164 427.416 749.2 428.114 747.283 428.836C765.136 486.015 821.925 519.284 874.147 503.087V503.075Z" fill="#0029FF"/>
<path d="M454.654 372.39C466.094 413.976 456.961 458.283 456.961 458.283C456.961 458.283 420.533 431.072 400.503 393.532C383.325 361.34 393.854 340.671 408.844 334.838C423.751 328.994 444.964 337.122 454.666 372.378L454.654 372.39Z" fill="#0029FF"/>
<path d="M401.817 530.961C435.926 504.507 455.198 463.572 455.198 463.572C455.198 463.572 409.708 463.56 371.151 481.614C338.084 497.112 334.12 519.958 342.615 533.587C351.038 547.193 372.902 553.381 401.817 530.961Z" fill="#0029FF"/>
<path d="M514.697 480.3C515.17 478.88 514.378 477.295 512.958 476.822L318.871 412.295C317.451 411.822 315.866 412.615 315.392 414.035C314.919 415.454 315.712 417.04 317.131 417.513L511.219 482.039C512.662 482.56 514.247 481.767 514.697 480.3Z" fill="#0029FF"/>
<path d="M181.774 249.643C162.276 259.344 150.776 272.985 148.469 289.099C147.901 292.92 147.878 297.594 148.824 302.953C142.814 302.492 137.715 303.107 133.692 304.254C118.04 308.608 105.925 321.753 98.8147 342.327C91.2192 364.131 92.6389 382.611 102.873 395.862C105.085 398.666 108.043 401.718 112.089 404.475C109.06 407.48 106.73 410.509 105.132 413.301C96.9335 427.332 97.4896 445.197 106.73 464.907C116.526 485.836 130.439 498.117 147.038 500.365C156.574 501.678 171.41 500.152 188.056 485.482C200.325 474.621 208.772 464.553 213.883 454.674C221.135 440.618 221.774 426.883 215.74 413.951C212.652 407.302 208.216 401.884 202.667 397.648C206.985 393.247 210.322 387.982 212.451 381.818C214.782 375.193 215.409 368.485 214.557 361.824C221.739 362.013 228.766 360.546 235.522 357.163C248.287 350.774 256.344 339.665 259.444 324.142C261.633 313.234 261.278 300.125 258.367 284.012C254.463 262.183 243.78 251.76 235.51 246.898C220.97 238.344 202.442 239.302 181.774 249.643Z" fill="#FFD000"/>
<path d="M148.364 401.848C170.429 402.227 192.044 398.121 199.285 377.228C206.561 356.394 193.038 338.564 174.676 326.343C149.311 309.425 132.298 326.449 123.756 350.963C114.871 376.518 117.604 401.351 148.364 401.848Z" fill="#0029FF"/>
<path d="M174.427 327.077C189.76 342.93 207.944 355.317 227.844 345.663C247.767 336.068 250.796 313.933 246.466 292.258C240.527 262.385 216.451 262.326 193.049 273.672C168.677 285.432 153.036 304.941 174.427 327.077Z" fill="#0029FF"/>
<path d="M182.803 473.142C198.68 457.81 211.067 439.625 201.425 419.737C191.783 399.849 169.694 396.809 148.008 401.151C118.123 407.114 118.052 431.178 129.386 454.556C141.17 478.963 160.691 494.521 182.803 473.142Z" fill="#0029FF"/>
<path d="M288.169 468.765C247.884 488.925 198.904 472.646 178.744 432.397C158.596 392.148 174.911 343.167 215.195 323.007C255.48 302.847 304.46 319.127 324.608 359.388C344.757 399.637 328.442 448.617 288.157 468.777L288.169 468.765Z" fill="white"/>
<path d="M215.41 415.786C214.168 414.176 212.476 412.911 210.394 412.213C204.904 410.426 198.989 413.384 197.155 418.897C195.368 424.387 198.326 430.29 203.839 432.124C209.329 433.911 215.244 430.953 217.078 425.44C217.693 423.582 217.729 421.642 217.327 419.855C232.281 414.484 266.461 407.918 323.604 426.753C324.728 427.12 325.97 426.504 326.337 425.38C326.704 424.268 326.089 423.026 324.977 422.647C265.916 403.221 230.944 410.047 215.41 415.774V415.786Z" fill="#0029FF"/>
<path d="M235.878 353.756C233.914 354.3 231.749 354.335 229.667 353.637C224.177 351.851 221.196 345.9 222.982 340.41C224.769 334.921 230.732 331.939 236.221 333.726C241.711 335.512 244.692 341.463 242.906 346.953C242.29 348.822 241.143 350.384 239.747 351.579C248.573 364.735 272.176 390.29 329.319 409.125C330.443 409.491 331.058 410.734 330.68 411.858C330.313 412.97 329.071 413.597 327.947 413.23C268.993 393.874 244.964 367.598 235.866 353.779L235.878 353.756Z" fill="#0029FF"/>
<path d="M204.724 366.865C199.234 365.078 193.319 368.036 191.485 373.549C189.699 379.039 192.656 384.942 198.17 386.776C202.938 388.362 208.06 386.303 210.498 382.103L325.779 420.009C326.903 420.376 328.133 419.761 328.512 418.637C328.89 417.525 328.263 416.283 327.151 415.904L211.87 377.998C212.414 373.135 209.563 368.415 204.736 366.853L204.724 366.865Z" fill="#0029FF"/>
<path d="M336.336 418.803L336.319 418.798L336.301 418.793C333.894 418.157 331.547 417.417 329.294 416.617L329.283 416.613L329.273 416.61C268.026 395.289 236.683 322.979 260.302 255.015C260.302 255.015 260.302 255.014 260.302 255.014L264.123 244.027L274.102 246.78L274.11 246.782L274.118 246.784C276.622 247.462 278.904 248.17 281.145 248.966L281.155 248.97L281.166 248.973C342.413 270.294 373.756 342.604 350.137 410.568C350.137 410.568 350.137 410.568 350.137 410.569L346.316 421.556L336.336 418.803Z" fill="#FFD000" stroke="white" stroke-width="6.77416"/>
<path d="M287.304 283.243C285.341 282.545 283.377 281.977 281.365 281.433C261.702 338.092 287.6 398.513 339.195 416.46C341.159 417.158 343.147 417.773 345.134 418.27C364.797 361.612 338.923 301.238 287.293 283.243H287.304Z" fill="#0029FF"/>
<path d="M189.486 526.933L189.485 526.933C187.199 526.224 184.94 525.433 182.54 524.51L172.882 520.79L176.358 509.683C176.358 509.683 176.358 509.683 176.358 509.683C197.861 441.006 266.05 401.429 327.995 420.653C330.202 421.34 332.545 422.155 334.941 423.076L344.599 426.797L341.123 437.903C341.123 437.904 341.123 437.904 341.123 437.904C319.62 506.581 251.432 546.158 189.486 526.933Z" fill="#FFD000" stroke="white" stroke-width="6.77416"/>
<path d="M214.804 503.075C212.816 502.46 210.852 501.762 208.936 501.04C226.836 443.837 283.577 410.592 335.799 426.801C337.787 427.416 339.751 428.114 341.668 428.836C323.815 486.015 267.026 519.284 214.804 503.087V503.075Z" fill="#0029FF"/>
<path d="M544.583 483.802C543.08 483.802 541.803 482.844 541.803 481.625V271.389C541.803 270.218 543.021 269.212 544.583 269.212C546.145 269.212 547.363 270.17 547.363 271.389V481.625C547.304 482.844 546.085 483.802 544.583 483.802Z" fill="#0029FF"/>
<path d="M543.517 196.156L551.881 200.521C553.514 201.361 554.969 202.178 556.377 203.03C594.627 225.852 595.656 264.231 552.544 288.603L543.67 293.75L534.525 288.603C491.413 264.231 492.442 225.852 530.68 203.03C532.088 202.19 533.543 201.373 535.176 200.521L543.517 196.156Z" fill="#FFD000"/>
<path d="M550.407 334.168L550.392 334.172L550.377 334.176L545.803 335.438L543.995 330.248C543.995 330.247 543.995 330.247 543.995 330.246C530.374 291.068 548.501 249.613 583.507 237.426L583.519 237.422L583.531 237.418C584.811 236.962 586.106 236.552 587.522 236.176L587.538 236.172L587.554 236.168L592.128 234.905L593.936 240.096C607.558 279.275 589.431 320.73 554.424 332.917L554.412 332.921L554.4 332.926C553.123 333.381 551.78 333.803 550.407 334.168Z" fill="#FFD000" stroke="white" stroke-width="6.77416"/>
<path d="M538.741 334.299L538.759 334.168C537.386 333.803 536.043 333.381 534.766 332.926L534.754 332.921L534.742 332.917C499.735 320.73 481.608 279.276 495.229 240.098C495.229 240.097 495.229 240.097 495.23 240.097C495.23 240.096 495.23 240.096 495.23 240.096L497.037 234.905L501.612 236.168L501.627 236.172L501.643 236.176C503.06 236.552 504.355 236.962 505.634 237.418L505.646 237.422L505.658 237.426C540.665 249.613 558.781 291.068 545.17 330.248C545.17 330.248 545.17 330.248 545.17 330.249L543.362 335.44L538.775 334.176L538.741 334.299Z" fill="#FFD000" stroke="white" stroke-width="6.77416"/>
<path d="M518.814 309.615H499.636C499.636 326.675 513.466 340.494 530.515 340.494H540.051C545.753 325.598 534.762 309.615 518.814 309.615Z" fill="#0029FF"/>
<path d="M570.115 309.615H589.293C589.293 326.675 575.463 340.494 558.414 340.494H548.878C543.176 325.598 554.167 309.615 570.115 309.615Z" fill="#0029FF"/>
<path d="M544.583 362.653C550.842 362.653 555.917 354.395 555.917 344.221C555.917 334.046 550.842 325.788 544.583 325.788C538.324 325.788 533.249 334.046 533.249 344.221C533.249 354.395 538.324 362.653 544.583 362.653Z" fill="#0029FF"/>
<path d="M543.734 541.812C543.734 541.812 511.009 518.612 494.315 485.069C480.134 456.649 490.205 438.845 504.288 433.722C517.924 428.735 537.052 435.319 544.474 464.304C551.915 435.338 571.044 428.735 584.66 433.722C598.646 438.845 608.717 456.649 594.633 485.069C577.939 518.612 545.214 541.812 545.214 541.812C545.214 541.812 544.922 540.585 544.474 538.345C544.026 540.565 543.734 541.812 543.734 541.812Z" fill="#FFD000"/>
<path fill-rule="evenodd" clip-rule="evenodd" d="M486.251 629.397C486.251 620.366 487.791 612.238 490.872 605.013C493.953 597.682 498.203 591.467 503.622 586.367C509.041 581.267 515.415 577.336 522.746 574.573C530.184 571.811 538.258 570.43 546.971 570.43C555.683 570.43 563.705 571.811 571.036 574.573C578.473 577.336 584.901 581.267 590.32 586.367C595.738 591.467 599.988 597.682 603.069 605.013C606.15 612.238 607.691 620.366 607.691 629.397C607.691 638.534 606.15 646.768 603.069 654.099C599.988 661.324 595.738 667.486 590.32 672.586C584.901 677.686 578.473 681.617 571.036 684.38C563.705 687.142 555.683 688.523 546.971 688.523C538.258 688.523 530.184 687.142 522.746 684.38C515.415 681.617 509.041 677.686 503.622 672.586C498.203 667.486 493.953 661.324 490.872 654.099C487.791 646.768 486.251 638.534 486.251 629.397ZM545.058 587.004C535.284 587.004 530.396 598.266 530.396 620.791C530.396 637.79 531.99 650.54 535.177 659.04C538.471 667.539 542.933 671.789 548.564 671.789C558.339 671.789 563.227 660.527 563.227 638.003C563.227 621.003 561.58 608.254 558.286 599.754C555.099 591.254 550.689 587.004 545.058 587.004ZM94 573.776V685.336H134.958V666.69C135.808 666.796 136.552 666.849 137.189 666.849H139.58C147.442 666.849 155.145 665.946 162.689 664.14C170.232 662.333 176.926 659.465 182.769 655.534C188.719 651.602 193.447 646.609 196.953 640.553C200.566 634.39 202.372 627.006 202.372 618.4C202.372 609.582 200.778 602.304 197.591 596.566C194.403 590.829 189.994 586.261 184.363 582.861C178.732 579.461 171.985 577.123 164.123 575.848C156.261 574.467 147.708 573.776 138.464 573.776H94ZM158.386 643.9C155.305 648.574 150.895 650.912 145.158 650.912C143.564 650.912 141.811 650.699 139.899 650.274C137.986 649.849 136.339 649.052 134.958 647.884V588.917H137.03C145.636 588.917 152.117 592.051 156.473 598.32C160.829 604.588 163.007 613.407 163.007 624.775C163.007 632.744 161.467 639.118 158.386 643.9ZM226.734 672.905H277.255L282.992 685.336H330.963L279.645 573.776H231.834L242.512 597.204L201.713 685.336H220.997L226.734 672.905ZM269.286 655.693H234.703L252.074 618.081L269.286 655.693ZM626.758 607.244C623.783 614.469 622.296 622.119 622.296 630.194C622.296 638.481 623.837 646.184 626.918 653.302C630.105 660.421 634.408 666.583 639.827 671.789C645.245 676.995 651.567 681.086 658.792 684.061C666.017 687.036 673.773 688.523 682.06 688.523C690.347 688.523 696.775 687.992 701.344 686.93C705.912 685.973 709.525 684.911 712.181 683.742L710.428 666.69C707.559 667.539 704.956 668.23 702.619 668.761C700.388 669.293 697.891 669.558 695.128 669.558C690.56 669.558 686.522 668.496 683.016 666.371C679.51 664.14 676.588 661.165 674.251 657.446C671.913 653.727 670.16 649.318 668.992 644.218C667.823 639.118 667.238 633.594 667.238 627.644C667.238 614.257 669.842 604.694 675.048 598.957C680.36 593.113 688.328 590.192 698.953 590.192C700.122 590.192 701.291 590.298 702.459 590.51C703.734 590.723 705.275 590.935 707.081 591.148L709.472 573.298C705.328 572.342 701.131 571.652 696.881 571.227C692.738 570.695 687.957 570.43 682.538 570.43C673.72 570.43 665.592 572.023 658.154 575.211C650.823 578.398 644.502 582.754 639.189 588.279C633.877 593.698 629.733 600.019 626.758 607.244ZM849.454 573.776V685.336H805.786V656.968H776.781V685.336H733.113V573.776H776.781V639.756H805.786V573.776H849.454ZM890.734 672.905H941.255L946.992 685.336H994.962L943.645 573.776H895.834L906.512 597.204L865.713 685.336H884.997L890.734 672.905ZM933.286 655.693H898.703L916.074 618.081L933.286 655.693ZM379.072 575.702L355.87 665.876H346.318H341.006V692.999H356.957H375.849H381.161V681.727H428.838V692.999H434.15H457.006H468.994V671.188V665.876H460.947V575.702H379.072ZM394.377 594.023L377.522 665.876H418.678V593.637H394.863C394.631 593.637 394.43 593.797 394.377 594.023Z" fill="#0029FF"/>
</svg>
